HIERARCHY
ROOT Hips
{
	OFFSET 0.000000 0.000000 0.000000
	CHANNELS 6 Xposition Yposition Zposition Zrotation Yrotation Xrotation 
	JOINT LHipJoint
	{
		OFFSET 0.000000 0.000000 0.000000
		CHANNELS 3 Zrotation Yrotation Xrotation
		JOINT LeftUpLeg
		{
			OFFSET 1.363060 -1.794630 0.839290
			CHANNELS 3 Zrotation Yrotation Xrotation
			JOINT LeftLeg
			{
				OFFSET 2.448110 -6.726130 0.000000
				CHANNELS 3 Zrotation Yrotation Xrotation
				JOINT LeftFoot
				{
					OFFSET 2.562200 -7.039590 0.000000
					CHANNELS 3 Zrotation Yrotation Xrotation
					JOINT LeftToeBase
					{
						OFFSET 0.157640 -0.433110 2.322550
						CHANNELS 3 Zrotation Yrotation Xrotation
						End Site
						{
							OFFSET 0.000000 0.000000 0.000000
						}
					}
				}
			}
		}
	}
	JOINT RHipJoint
	{
		OFFSET 0.000000 0.000000 0.000000
		CHANNELS 3 Zrotation Yrotation Xrotation
		JOINT RightUpLeg
		{
			OFFSET -1.305520 -1.794630 0.839290
			CHANNELS 3 Zrotation Yrotation Xrotation
			JOINT RightLeg
			{
				OFFSET -2.542530 -6.985550 0.000000
				CHANNELS 3 Zrotation Yrotation Xrotation
				JOINT RightFoot
				{
					OFFSET -2.568260 -7.056230 0.000000
					CHANNELS 3 Zrotation Yrotation Xrotation
					JOINT RightToeBase
					{
						OFFSET -0.164730 -0.452590 2.363150
						CHANNELS 3 Zrotation Yrotation Xrotation
						End Site
						{
							OFFSET 0.000000 0.000000 0.000000
						}
					}
				}
			}
		}
	}
}
MOTION
Frames: 11
Frame Time: 0.008333
-10.916327 17.022483 -2.243528 -149.467509 89.311624 -137.905550 -12.137570 5.510424 1.569503 -5.256735 9.635742 1.648714 -1.265699 1.369745 22.439019 -0.127895 -8.667167 11.279545 -2.381599 0.000000 -75.862900 6.888635 -1.973298 5.726044 16.953352 8.105443 -27.316473 3.735702 1.400113 2.542305 -0.589098 -4.388257 2.859963 -1.839000 -0.000000 -26.361800
-10.759187 17.045116 -2.234979 -144.705255 88.998554 -133.195659 -12.202348 5.455213 1.523312 -4.679272 9.914943 0.599195 -1.052664 1.483717 24.814237 -0.042368 -9.117279 12.865278 -2.791299 -0.000000 -75.267400 6.859566 -2.087887 5.718169 17.290298 8.078781 -26.805405 3.765160 1.336526 2.945817 -0.553475 -4.024960 2.414496 -1.693101 -0.000000 -23.842501
-10.605315 17.066895 -2.224560 -141.547491 88.730155 -130.078153 -12.262419 5.396086 1.462686 -4.144114 10.229386 -0.557686 -0.851832 1.592074 27.296270 0.056554 -9.395146 14.304929 -3.154299 -0.000000 -73.754800 6.841192 -2.171501 5.714964 17.583322 8.091714 -26.252253 3.794296 1.295756 3.257029 -0.523986 -3.696600 1.924269 -1.557900 0.000000 -21.257700
-10.454582 17.087459 -2.212371 -139.935757 88.506361 -128.494245 -12.323295 5.328572 1.392732 -3.672419 10.545036 -1.803292 -0.665012 1.694991 29.857101 0.164410 -9.401704 15.529535 -3.409600 -0.000000 -71.409700 6.823931 -2.231811 5.712780 17.830159 8.115921 -25.668548 3.820914 1.276783 3.469550 -0.503366 -3.422379 1.417194 -1.439800 -0.000000 -18.700600
-10.306716 17.106542 -2.198916 -139.573775 88.313016 -128.147293 -12.387216 5.248523 1.316044 -3.262062 10.844343 -3.126348 -0.491769 1.793804 32.474753 0.277030 -9.067433 16.482103 -3.504400 -0.000000 -68.402900 6.801656 -2.276206 5.711413 18.041893 8.136333 -25.058437 3.844318 1.279205 3.568920 -0.495082 -3.227111 0.923332 -1.345300 0.000000 -16.252500
-10.161374 17.124006 -2.184567 -140.177455 88.137675 -128.752550 -12.453790 5.154526 1.236016 -2.909947 11.111384 -4.516925 -0.331389 1.890798 35.122931 0.392061 -8.346636 17.120949 -3.401400 0.000000 -64.954400 6.772092 -2.309304 5.710753 18.229751 8.141938 -24.426944 3.864461 1.302258 3.548554 -0.500962 -3.125208 0.463601 -1.277100 0.000000 -13.960800
-10.018221 17.139837 -2.169563 -141.526638 87.974930 -130.090666 -12.520459 5.047858 1.156924 -2.618542 11.329547 -5.961058 -0.183478 1.988521 37.768899 0.509343 -7.221451 17.420689 -3.086000 0.000000 -61.290000 6.736998 -2.333549 5.707909 18.400519 8.116661 -23.781504 3.881422 1.343243 3.418206 -0.519448 -3.111140 0.051596 -1.232700 0.000000 -11.900600
-9.876966 17.154164 -2.154114 -143.351883 87.817201 -131.891607 -12.583995 4.929506 1.082517 -2.385033 11.487707 -7.448483 -0.047203 2.088445 40.381168 0.630530 -5.712056 17.371892 -2.572399 0.000000 -57.610901 6.698910 -2.350724 5.702542 18.560060 8.056580 -23.128776 3.895564 1.399655 3.188524 -0.548770 -3.176123 -0.306943 -1.209100 0.000000 -10.096200
-9.737404 17.167149 -2.138146 -145.498732 87.666927 -134.004076 -12.639752 4.802096 1.015955 -2.213974 11.576208 -8.962087 0.077338 2.191461 42.923594 0.758380 -3.867091 16.980502 -1.898800 -0.000000 -54.062800 6.663509 -2.361191 5.690139 18.706910 7.949530 -22.475692 3.906916 1.466676 2.888018 -0.583924 -3.290384 -0.617347 -1.198500 -0.000001 -8.581601
-9.599416 17.179039 -2.121624 -147.807828 87.526907 -136.273046 -12.683708 4.667828 0.959050 -2.105041 11.592666 -10.484497 0.190027 2.297138 45.362495 0.895524 -1.764646 16.264522 -1.123900 0.000000 -50.720000 6.635637 -2.365485 5.667661 18.839495 7.791551 -21.825635 3.915826 1.539653 2.545381 -0.619922 -3.421816 -0.892973 -1.193000 -0.000000 -7.331300
-9.462266 17.190038 -2.104945 -149.945005 87.376344 -138.340319 -12.716970 4.521129 0.915920 -2.033481 11.537455 -12.046104 0.292920 2.401378 47.686527 1.043151 0.488758 15.251638 -0.319800 0.000000 -47.633900 6.609403 -2.367194 5.656858 18.965684 7.652054 -21.192119 3.922728 1.622223 2.134904 -0.662696 -3.602525 -1.130269 -1.199500 -0.000000 -6.229800
